<?xml version="1.0" standalone="no"?>
<!DOCTYPE svg PUBLIC "-//W3C//DTD SVG 20010904//EN"
 "http://www.w3.org/TR/2001/REC-SVG-20010904/DTD/svg10.dtd">
<svg version="1.0" xmlns="http://www.w3.org/2000/svg"
 width="512.000000pt" height="512.000000pt" viewBox="0 0 512.000000 512.000000"
 preserveAspectRatio="xMidYMid meet">
<metadata>
Created by potrace 1.11, written by Peter Selinger 2001-2013
</metadata>
<g transform="translate(0.000000,512.000000) scale(0.100000,-0.100000)"
fill="#000000" stroke="none">
<path d="M2435 4799 c-66 -39 -138 -81 -160 -94 -71 -40 -158 -91 -250 -145
-49 -29 -108 -62 -130 -74 -101 -56 -1211 -699 -1223 -708 -10 -9 -12 -252
-11 -1222 l1 -1211 260 -150 c144 -82 284 -163 312 -178 28 -16 71 -41 96 -57
25 -15 65 -39 90 -52 25 -14 191 -110 370 -213 179 -104 345 -199 370 -213 25
-14 50 -28 55 -32 6 -4 85 -51 177 -104 l168 -96 95 55 c52 30 99 55 104 55 5
0 11 4 13 8 2 4 23 19 48 33 54 31 46 26 430 246 168 97 317 184 332 194 15
10 30 19 33 19 3 0 38 19 78 43 39 24 185 108 322 187 138 78 261 150 275 159
14 8 40 24 59 34 19 10 51 29 72 42 l37 24 1 1210 2 1210 -38 24 c-21 13 -58
35 -83 49 -25 14 -112 65 -195 113 -82 48 -168 97 -190 110 -22 12 -112 64
-200 115 -88 51 -178 103 -200 115 -22 12 -107 62 -190 110 -82 48 -170 99
-195 113 -25 14 -152 87 -283 164 -131 76 -240 138 -242 138 -2 0 -21 11 -41
25 -20 14 -40 25 -43 25 -3 -1 -60 -33 -126 -71z"/>
</g>
</svg>
