<?xml version="1.0" standalone="no"?>
<!DOCTYPE svg PUBLIC "-//W3C//DTD SVG 20010904//EN"
 "http://www.w3.org/TR/2001/REC-SVG-20010904/DTD/svg10.dtd">
<svg version="1.0" xmlns="http://www.w3.org/2000/svg"
 width="512.000000pt" height="512.000000pt" viewBox="0 0 512.000000 512.000000"
 preserveAspectRatio="xMidYMid meet">
<metadata>
Created by potrace 1.11, written by Peter Selinger 2001-2013
</metadata>
<g transform="translate(0.000000,512.000000) scale(0.100000,-0.100000)"
fill="#000000" stroke="none">
<path d="M2495 4982 c-55 -35 -2211 -2198 -2229 -2237 -21 -44 -20 -73 4 -113
12 -19 229 -242 483 -497 254 -255 487 -490 518 -522 51 -55 107 -91 148 -98
9 -1 32 6 51 15 19 10 253 236 520 502 572 569 566 564 588 546 10 -7 222
-217 473 -466 251 -250 463 -458 470 -463 8 -5 10 -9 6 -9 -20 0 120 -110 143
-112 89 -6 90 -5 329 236 96 97 177 176 182 176 4 0 9 4 11 10 5 15 420 430
430 430 4 0 8 4 8 8 0 5 42 51 93 103 144 145 161 180 125 251 -10 21 -188
209 -403 425 -212 212 -385 390 -385 395 0 4 -4 8 -9 8 -4 0 -96 88 -202 196
-435 438 -1168 1171 -1195 1192 -62 51 -106 57 -159 24z"/>
<path d="M2544 2210 c-18 -4 -45 -16 -60 -28 -30 -21 -748 -738 -783 -782 -12
-14 -25 -30 -31 -37 -5 -7 -10 -19 -10 -27 0 -8 -4 -17 -9 -21 -10 -6 -1 -48
19 -86 7 -13 191 -203 408 -421 474 -476 463 -468 572 -389 65 48 797 789 814
825 20 43 14 89 -18 131 -34 43 -747 756 -798 798 -52 41 -64 46 -104 37z"/>
</g>
</svg>
