<?xml version="1.0" standalone="no"?>
<!DOCTYPE svg PUBLIC "-//W3C//DTD SVG 20010904//EN"
 "http://www.w3.org/TR/2001/REC-SVG-20010904/DTD/svg10.dtd">
<svg version="1.0" xmlns="http://www.w3.org/2000/svg"
 width="512.000000pt" height="512.000000pt" viewBox="0 0 512.000000 512.000000"
 preserveAspectRatio="xMidYMid meet">
<metadata>
Created by potrace 1.11, written by Peter Selinger 2001-2013
</metadata>
<g transform="translate(0.000000,512.000000) scale(0.100000,-0.100000)"
fill="#000000" stroke="none">
<path d="M2635 4920 c-42 -16 -231 -241 -357 -425 -230 -336 -385 -671 -488
-1058 -41 -154 -41 -154 -24 -168 11 -9 18 -9 32 3 19 17 211 148 217 148 1 0
33 18 70 41 136 83 350 184 555 263 195 75 542 161 734 182 23 2 50 6 61 9
130 28 644 25 854 -5 74 -10 108 -3 85 19 -8 8 -276 165 -316 185 -7 4 -22 12
-33 19 -11 7 -74 43 -140 81 -66 39 -185 108 -265 154 -80 47 -163 95 -185
108 -35 19 -303 174 -390 224 -16 9 -106 61 -200 115 -93 54 -174 101 -180
105 -5 4 -19 4 -30 0z"/>
<path d="M2190 4691 c-74 -42 -196 -113 -270 -156 -120 -70 -194 -112 -302
-174 -18 -10 -190 -110 -383 -221 -192 -112 -366 -212 -385 -223 -161 -90
-243 -143 -252 -162 -24 -53 158 -497 315 -770 43 -74 166 -267 177 -275 3 -3
21 -26 40 -52 18 -27 37 -48 42 -48 4 0 8 -5 8 -11 0 -29 372 -429 398 -429
14 0 35 28 28 38 -13 22 -22 447 -12 612 6 99 29 273 52 395 9 44 17 91 20
105 24 127 102 379 173 560 43 107 194 417 229 467 10 15 54 81 96 145 42 65
102 150 132 190 86 114 77 115 -106 9z"/>
<path d="M3659 3846 c-2 -2 -42 -7 -89 -10 -90 -8 -146 -14 -195 -21 -16 -3
-48 -7 -70 -11 -22 -3 -74 -12 -115 -21 -41 -8 -83 -17 -93 -19 -10 -2 -27 -6
-37 -9 -10 -3 -27 -8 -37 -10 -79 -18 -182 -49 -206 -62 -40 -20 -32 -26 139
-112 236 -118 447 -254 658 -425 160 -130 426 -400 522 -531 16 -22 34 -45 39
-51 6 -6 21 -27 35 -47 14 -20 28 -37 33 -37 4 0 7 -4 7 -9 0 -6 19 -38 43
-73 113 -166 271 -461 334 -623 11 -28 26 -50 34 -50 12 0 14 142 17 996 2
980 2 996 -18 1014 -21 19 -86 37 -230 61 -52 8 -106 17 -120 20 -14 2 -47 7
-75 9 -27 3 -68 8 -90 11 -45 6 -481 15 -486 10z"/>
<path d="M577 3413 c-4 -3 -7 -453 -7 -998 0 -949 1 -993 18 -1008 24 -22 193
-59 377 -83 28 -3 58 -8 69 -10 41 -8 249 -18 371 -18 177 0 340 12 475 35 30
5 77 11 103 15 47 5 319 70 407 97 39 12 72 40 60 50 -3 2 -68 34 -145 72 -77
38 -175 90 -218 117 -43 26 -81 48 -83 48 -9 0 -202 135 -284 198 -361 279
-695 663 -910 1047 -43 76 -138 270 -175 358 -36 84 -44 95 -58 80z"/>
<path d="M3647 2963 c-2 -5 -3 -16 -2 -25 8 -50 17 -252 16 -383 -1 -240 -11
-360 -52 -600 -11 -66 -34 -172 -50 -235 -16 -63 -32 -124 -34 -134 -14 -60
-95 -286 -130 -363 -8 -17 -15 -33 -15 -36 0 -13 -106 -231 -153 -312 -69
-123 -182 -296 -261 -401 -100 -132 -95 -134 98 -23 77 45 161 93 186 107 25
13 50 28 55 32 6 4 30 19 55 32 25 14 112 64 193 112 82 47 153 86 158 86 5 0
9 4 9 8 0 4 12 13 28 19 15 7 34 17 42 22 20 14 118 70 515 299 181 105 336
200 343 211 12 17 8 37 -31 153 -119 354 -293 681 -524 986 -93 123 -170 210
-299 340 -102 102 -135 126 -147 105z"/>
<path d="M3385 1824 c-158 -110 -384 -237 -545 -308 -47 -21 -104 -46 -126
-56 -73 -33 -365 -128 -475 -154 -128 -31 -369 -74 -454 -81 -277 -25 -572
-24 -792 4 -81 10 -126 8 -129 -4 -2 -5 112 -77 254 -158 141 -82 264 -153
272 -158 17 -10 93 -53 161 -91 64 -37 298 -172 386 -224 41 -24 77 -44 80
-44 3 0 17 -8 31 -18 15 -11 52 -32 82 -49 30 -17 117 -67 194 -112 76 -44
140 -81 142 -81 2 0 33 -18 69 -40 49 -30 70 -38 83 -31 27 14 110 106 211
231 311 388 543 864 651 1334 27 117 21 120 -95 40z"/>
</g>
</svg>
