<svg version="1" xmlns="http://www.w3.org/2000/svg" width="682.667" height="682.667" viewBox="0 0 512.000000 512.000000"><path d="M192.5 76L122 146.5c-4.1 4-12.9 12.8-19.4 19.4-6.6 6.7-12 12.1-12 12.1-.2 0-64.6 64.4-64.6 64.6 0 .1-3 3.1-6.7 6.7l-6.7 6.5 55.6 55.6c30.6 30.6 55.8 56 56 56.4.2.4 3.6 3.8 7.6 7.6l7.2 7 58.1-58.2c32-32 58.5-58.2 58.8-58.2.3 0 26.7 26.1 58.6 58l58 58 20-19.9c11-11 39.5-39.4 63.3-63.1l43.2-43.2-121.4-121.4C310.8 67.6 256 13 255.8 13c-.2 0-28.7 28.4-63.3 63z"/><path d="M205.3 348.7c-27.1 27.2-49.3 49.6-49.3 49.9 0 .2 22.5 22.9 50 50.3l50 50 50.1-50c44.3-44.1 49.9-50.2 48.7-51.6-4.6-5.6-98.2-98.3-99.1-98.2-.7.1-23.4 22.4-50.4 49.6z"/></svg>